# xmcd
#
# Track frame offsets:
#	150
#	15196
#	30640
#	53120
#	74723
#	93813
#	114232
#	130484
#	138579
#	155665
#	167909
#	184758
#	201056
#	221379
#
# Disc length: 3112 seconds
#
# Revision: 1
# Processed by: cddbd v1.4PL0 Copyright (c) Steve Scherf et al.
# Submitted via: EasyCDDAExtractor 6.0.0.1
#
DISCID=c10c260e
DTITLE=Colin James - National Steel
DYEAR=1997
DGENRE=Rock/Blues
TTITLE0=Shout Baby Shout
TTITLE1=Rollin' Stone
TTITLE2=National Steel
TTITLE3=These Arms Of Mine
TTITLE4=Going Up To The Country
TTITLE5=Fixin' To Die
TTITLE6=Somebody Have Mercy
TTITLE7=Postman's Sack
TTITLE8=Please Baby
TTITLE9=Ride and Roll
TTITLE10=I Live The Life I Love
TTITLE11=My Mind Is On Vacation
TTITLE12=Before The Dawn
TTITLE13=Kind Hearted Woman
EXTD=
EXTT0=
EXTT1=
EXTT2=
EXTT3=
EXTT4=
EXTT5=
EXTT6=
EXTT7=
EXTT8=
EXTT9=
EXTT10=
EXTT11=
EXTT12=
EXTT13=
PLAYORDER=
